# xmcd
#
# Track frame offsets:
#	150
#	18845
#	33763
#	45787
#	62823
#	80946
#	100866
#	113333
#	130806
#	158310
#	174468
#	195728
#	216355
#	232905
#	250350
#	262043
#	279862
#	297092
#	316030
#	326377
#
# Disc length: 4603
#
# Revision: 1
# Processed by: cddbd v1.5.1PL0 Copyright (c) Steve Scherf et al.
# Submitted via: ExactAudioCopy v0.90b4
# Normalized: r0:DSETVAR1
#
DISCID=fe11f914
DTITLE=Various Artist - Soul - Disc 2
DYEAR=2002
DGENRE=Soul
TTITLE0=Love Unlimited Orchestra - Loves Theme
TTITLE1=The Stylistics - Im Stone in Love with You
TTITLE2=Curtis Mayfield - People Get Ready
TTITLE3=Bobby Blond - Aint No Love in the Heart of..
TTITLE4=Jeffrey Osbourne - On the Wings of Love
TTITLE5=Brenda Russell - Piano in the Dark
TTITLE6=Dinah Washington - Mad About the Boy
TTITLE7=Dobie Gray - Drift Away
TTITLE8=Isaac Hayes - A Few More Kisses to Go
TTITLE9=Eddie Holman - Hey There Lonely Girl
TTITLE10=Dina Carroll - Dont Be A Stranger
TTITLE11=Oleta Adams - Get Here
TTITLE12=Vanessa Williams - Save the Best for Last
TTITLE13=Michael Jackson - Ill Be There
TTITLE14=Nina Simone - I Put A Spell on You
TTITLE15=Boyz II Men - Ill Make Love to You
TTITLE16=Captain and Tennille - Do that to Me One More Time
TTITLE17=The Dells - On the Dock of the Bay
TTITLE18=Brook Benton - Endlessly
TTITLE19=The Floaters - Float on
EXTD=
EXTT0=
EXTT1=
EXTT2=
EXTT3=
EXTT4=
EXTT5=
EXTT6=
EXTT7=
EXTT8=
EXTT9=
EXTT10=
EXTT11=
EXTT12=
EXTT13=
EXTT14=
EXTT15=
EXTT16=
EXTT17=
EXTT18=
EXTT19=
PLAYORDER=
